<?xml version="1.0" encoding="UTF-8"?>
<svg xmlns="http://www.w3.org/2000/svg" version="1.1" width="400" height="400" viewBox="0 0 400 400"><rect x="0" y="0" width="400" height="400" fill="#ffffff"/><g transform="scale(8.889)"><g transform="translate(0,0)"><path fill-rule="evenodd" d="M10 0L10 1L9 1L9 2L8 2L8 4L9 4L9 2L10 2L10 3L12 3L12 7L11 7L11 4L10 4L10 5L9 5L9 6L8 6L8 7L9 7L9 9L8 9L8 8L6 8L6 9L7 9L7 10L5 10L5 8L3 8L3 9L0 9L0 12L1 12L1 13L0 13L0 15L2 15L2 16L0 16L0 17L2 17L2 16L3 16L3 15L2 15L2 12L3 12L3 10L5 10L5 11L7 11L7 12L6 12L6 13L8 13L8 12L10 12L10 11L11 11L11 13L9 13L9 14L10 14L10 15L12 15L12 14L11 14L11 13L12 13L12 11L14 11L14 12L13 12L13 15L14 15L14 17L13 17L13 18L14 18L14 17L15 17L15 18L17 18L17 16L18 16L18 17L19 17L19 18L20 18L20 19L18 19L18 22L19 22L19 23L18 23L18 24L17 24L17 22L16 22L16 21L14 21L14 20L16 20L16 19L12 19L12 20L13 20L13 21L12 21L12 23L11 23L11 20L8 20L8 19L11 19L11 18L10 18L10 16L9 16L9 18L8 18L8 14L5 14L5 15L4 15L4 17L3 17L3 18L1 18L1 19L0 19L0 20L1 20L1 19L2 19L2 20L4 20L4 22L0 22L0 23L2 23L2 26L3 26L3 27L0 27L0 28L6 28L6 29L9 29L9 30L11 30L11 31L10 31L10 32L9 32L9 33L8 33L8 32L5 32L5 31L7 31L7 30L4 30L4 32L5 32L5 34L4 34L4 33L3 33L3 29L1 29L1 30L0 30L0 32L1 32L1 33L0 33L0 34L2 34L2 33L3 33L3 34L4 34L4 35L1 35L1 36L0 36L0 37L1 37L1 36L3 36L3 37L5 37L5 34L6 34L6 35L8 35L8 34L9 34L9 33L10 33L10 34L11 34L11 35L9 35L9 36L11 36L11 37L10 37L10 39L9 39L9 37L8 37L8 36L6 36L6 37L8 37L8 39L9 39L9 40L8 40L8 42L9 42L9 40L10 40L10 45L11 45L11 44L13 44L13 45L19 45L19 44L20 44L20 45L21 45L21 43L22 43L22 42L23 42L23 44L22 44L22 45L23 45L23 44L24 44L24 45L25 45L25 44L26 44L26 45L28 45L28 44L29 44L29 45L32 45L32 44L31 44L31 42L33 42L33 44L34 44L34 42L36 42L36 43L35 43L35 44L36 44L36 45L39 45L39 44L40 44L40 43L41 43L41 42L40 42L40 41L41 41L41 40L43 40L43 41L42 41L42 42L43 42L43 43L42 43L42 44L41 44L41 45L42 45L42 44L45 44L45 41L44 41L44 40L45 40L45 39L44 39L44 40L43 40L43 39L42 39L42 38L44 38L44 37L42 37L42 38L41 38L41 36L39 36L39 35L40 35L40 34L41 34L41 35L42 35L42 36L45 36L45 34L44 34L44 32L43 32L43 31L45 31L45 29L44 29L44 28L45 28L45 27L43 27L43 26L44 26L44 25L43 25L43 26L39 26L39 25L41 25L41 24L45 24L45 22L43 22L43 23L41 23L41 22L42 22L42 20L43 20L43 21L45 21L45 15L44 15L44 13L45 13L45 12L44 12L44 11L45 11L45 10L44 10L44 9L43 9L43 8L41 8L41 12L40 12L40 9L38 9L38 10L37 10L37 9L36 9L36 10L35 10L35 9L32 9L32 8L31 8L31 6L30 6L30 5L32 5L32 4L34 4L34 5L37 5L37 3L36 3L36 1L37 1L37 0L36 0L36 1L35 1L35 4L34 4L34 0L32 0L32 1L31 1L31 0L30 0L30 1L31 1L31 2L32 2L32 4L30 4L30 2L28 2L28 1L29 1L29 0L28 0L28 1L26 1L26 0L24 0L24 1L23 1L23 2L24 2L24 4L23 4L23 3L22 3L22 0L21 0L21 4L20 4L20 3L19 3L19 2L20 2L20 0L19 0L19 2L18 2L18 0L15 0L15 2L16 2L16 3L18 3L18 4L20 4L20 8L19 8L19 10L18 10L18 8L17 8L17 6L16 6L16 8L14 8L14 7L15 7L15 5L17 5L17 4L15 4L15 3L14 3L14 1L13 1L13 3L12 3L12 0ZM24 1L24 2L25 2L25 1ZM13 3L13 5L14 5L14 3ZM27 3L27 4L25 4L25 5L26 5L26 6L25 6L25 9L23 9L23 10L22 10L22 9L20 9L20 11L21 11L21 10L22 10L22 12L24 12L24 13L25 13L25 14L23 14L23 17L21 17L21 16L22 16L22 15L21 15L21 14L20 14L20 12L19 12L19 13L17 13L17 11L15 11L15 12L14 12L14 13L15 13L15 15L16 15L16 14L18 14L18 15L19 15L19 16L20 16L20 17L21 17L21 18L22 18L22 19L20 19L20 20L22 20L22 19L23 19L23 20L24 20L24 19L25 19L25 20L26 20L26 21L25 21L25 24L26 24L26 25L28 25L28 22L29 22L29 21L30 21L30 22L31 22L31 25L29 25L29 27L30 27L30 28L28 28L28 27L27 27L27 26L26 26L26 27L24 27L24 25L22 25L22 26L20 26L20 25L19 25L19 26L17 26L17 25L16 25L16 24L15 24L15 25L14 25L14 24L12 24L12 25L10 25L10 24L11 24L11 23L10 23L10 21L9 21L9 25L10 25L10 26L12 26L12 27L10 27L10 28L9 28L9 26L8 26L8 27L6 27L6 26L7 26L7 25L5 25L5 26L4 26L4 23L3 23L3 26L4 26L4 27L6 27L6 28L9 28L9 29L10 29L10 28L11 28L11 30L12 30L12 31L11 31L11 32L12 32L12 31L14 31L14 32L13 32L13 34L12 34L12 35L13 35L13 36L12 36L12 37L11 37L11 38L12 38L12 37L13 37L13 36L14 36L14 38L13 38L13 41L12 41L12 39L11 39L11 41L12 41L12 42L11 42L11 43L12 43L12 42L14 42L14 43L15 43L15 41L14 41L14 38L15 38L15 39L16 39L16 38L17 38L17 40L19 40L19 42L21 42L21 41L20 41L20 40L19 40L19 39L20 39L20 38L18 38L18 36L19 36L19 35L18 35L18 34L17 34L17 33L19 33L19 34L20 34L20 35L21 35L21 34L20 34L20 33L21 33L21 31L19 31L19 30L18 30L18 28L19 28L19 29L20 29L20 30L21 30L21 27L23 27L23 28L22 28L22 29L23 29L23 30L22 30L22 33L23 33L23 34L22 34L22 36L23 36L23 34L24 34L24 33L25 33L25 34L26 34L26 33L25 33L25 32L28 32L28 33L27 33L27 34L28 34L28 33L29 33L29 34L30 34L30 35L31 35L31 33L30 33L30 32L31 32L31 31L32 31L32 33L34 33L34 32L35 32L35 36L34 36L34 34L33 34L33 38L32 38L32 39L31 39L31 37L32 37L32 36L31 36L31 37L29 37L29 36L27 36L27 35L24 35L24 36L25 36L25 41L24 41L24 43L25 43L25 42L26 42L26 44L28 44L28 43L27 43L27 42L26 42L26 38L27 38L27 37L28 37L28 38L29 38L29 39L28 39L28 40L29 40L29 39L31 39L31 40L33 40L33 41L35 41L35 40L34 40L34 39L36 39L36 38L35 38L35 36L36 36L36 35L38 35L38 34L36 34L36 32L38 32L38 33L39 33L39 34L40 34L40 33L41 33L41 32L42 32L42 33L43 33L43 32L42 32L42 29L43 29L43 28L42 28L42 27L41 27L41 28L42 28L42 29L41 29L41 31L40 31L40 32L39 32L39 31L36 31L36 30L34 30L34 32L33 32L33 31L32 31L32 28L33 28L33 27L34 27L34 29L35 29L35 25L36 25L36 27L37 27L37 30L39 30L39 29L40 29L40 28L39 28L39 26L37 26L37 25L36 25L36 24L35 24L35 25L34 25L34 24L33 24L33 25L32 25L32 22L33 22L33 21L34 21L34 20L33 20L33 19L32 19L32 20L31 20L31 19L30 19L30 20L29 20L29 21L28 21L28 22L26 22L26 21L27 21L27 20L26 20L26 18L25 18L25 17L26 17L26 16L28 16L28 14L29 14L29 17L27 17L27 19L28 19L28 18L29 18L29 17L30 17L30 16L33 16L33 15L32 15L32 13L31 13L31 12L30 12L30 13L28 13L28 11L27 11L27 10L26 10L26 8L27 8L27 7L28 7L28 10L29 10L29 11L33 11L33 10L30 10L30 6L29 6L29 7L28 7L28 5L29 5L29 4L28 4L28 3ZM27 4L27 5L28 5L28 4ZM18 5L18 7L19 7L19 5ZM21 5L21 8L24 8L24 5ZM9 6L9 7L10 7L10 8L11 8L11 7L10 7L10 6ZM13 6L13 7L14 7L14 6ZM22 6L22 7L23 7L23 6ZM26 6L26 7L27 7L27 6ZM32 6L32 7L33 7L33 8L37 8L37 6L36 6L36 7L35 7L35 6L34 6L34 7L33 7L33 6ZM12 8L12 10L15 10L15 9L14 9L14 8ZM16 8L16 10L17 10L17 8ZM9 9L9 10L7 10L7 11L9 11L9 10L10 10L10 9ZM1 10L1 11L2 11L2 10ZM23 10L23 11L24 11L24 12L25 12L25 13L26 13L26 15L24 15L24 17L25 17L25 16L26 16L26 15L27 15L27 13L26 13L26 12L27 12L27 11L26 11L26 10ZM38 10L38 11L37 11L37 12L36 12L36 11L34 11L34 12L35 12L35 13L34 13L34 15L35 15L35 14L36 14L36 13L37 13L37 12L39 12L39 10ZM42 10L42 11L44 11L44 10ZM15 12L15 13L16 13L16 12ZM41 12L41 13L39 13L39 15L38 15L38 14L37 14L37 15L38 15L38 18L37 18L37 19L39 19L39 20L40 20L40 18L41 18L41 19L44 19L44 16L41 16L41 15L42 15L42 14L43 14L43 13L44 13L44 12ZM3 13L3 14L4 14L4 13ZM30 13L30 14L31 14L31 13ZM19 14L19 15L20 15L20 14ZM40 14L40 15L39 15L39 17L40 17L40 15L41 15L41 14ZM6 15L6 16L5 16L5 17L6 17L6 18L5 18L5 19L4 19L4 20L5 20L5 19L6 19L6 20L7 20L7 19L6 19L6 18L7 18L7 17L6 17L6 16L7 16L7 15ZM11 16L11 17L12 17L12 16ZM15 16L15 17L16 17L16 16ZM36 16L36 17L35 17L35 18L34 18L34 19L35 19L35 21L36 21L36 17L37 17L37 16ZM31 17L31 18L32 18L32 17ZM23 18L23 19L24 19L24 18ZM5 21L5 24L8 24L8 21ZM21 21L21 24L24 24L24 21ZM31 21L31 22L32 22L32 21ZM37 21L37 24L40 24L40 21ZM6 22L6 23L7 23L7 22ZM13 22L13 23L15 23L15 22ZM22 22L22 23L23 23L23 22ZM38 22L38 23L39 23L39 22ZM19 23L19 24L20 24L20 23ZM0 24L0 26L1 26L1 24ZM13 25L13 27L14 27L14 28L12 28L12 29L13 29L13 30L14 30L14 31L15 31L15 30L14 30L14 29L16 29L16 30L17 30L17 29L16 29L16 28L18 28L18 27L17 27L17 26L14 26L14 25ZM31 25L31 26L32 26L32 25ZM15 27L15 28L16 28L16 27ZM19 27L19 28L20 28L20 27ZM31 27L31 28L32 28L32 27ZM23 28L23 29L24 29L24 32L25 32L25 29L26 29L26 28ZM27 29L27 30L26 30L26 31L28 31L28 32L30 32L30 31L31 31L31 30L30 30L30 31L29 31L29 29ZM1 30L1 32L2 32L2 30ZM16 31L16 32L19 32L19 33L20 33L20 32L19 32L19 31ZM35 31L35 32L36 32L36 31ZM14 32L14 34L13 34L13 35L14 35L14 34L15 34L15 32ZM6 33L6 34L8 34L8 33ZM16 34L16 36L15 36L15 37L16 37L16 36L18 36L18 35L17 35L17 34ZM26 36L26 37L27 37L27 36ZM21 37L21 40L24 40L24 37ZM37 37L37 40L40 40L40 37ZM22 38L22 39L23 39L23 38ZM38 38L38 39L39 39L39 38ZM16 41L16 42L17 42L17 43L16 43L16 44L19 44L19 43L18 43L18 41ZM30 41L30 42L29 42L29 44L30 44L30 42L31 42L31 41ZM36 41L36 42L38 42L38 43L39 43L39 42L38 42L38 41ZM36 43L36 44L37 44L37 43ZM0 0L0 7L7 7L7 0ZM1 1L1 6L6 6L6 1ZM2 2L2 5L5 5L5 2ZM38 0L38 7L45 7L45 0ZM39 1L39 6L44 6L44 1ZM40 2L40 5L43 5L43 2ZM0 38L0 45L7 45L7 38ZM1 39L1 44L6 44L6 39ZM2 40L2 43L5 43L5 40Z" fill="#000000"/></g></g></svg>
