<?xml version="1.0" encoding="UTF-8"?>
<svg xmlns="http://www.w3.org/2000/svg" version="1.1" width="400" height="400" viewBox="0 0 400 400"><rect x="0" y="0" width="400" height="400" fill="#ffffff"/><g transform="scale(8.889)"><g transform="translate(0,0)"><path fill-rule="evenodd" d="M13 0L13 1L12 1L12 2L11 2L11 1L9 1L9 4L8 4L8 5L9 5L9 6L8 6L8 8L6 8L6 9L4 9L4 8L2 8L2 11L1 11L1 9L0 9L0 11L1 11L1 13L0 13L0 14L1 14L1 15L2 15L2 16L1 16L1 17L0 17L0 18L2 18L2 16L3 16L3 19L1 19L1 20L0 20L0 21L1 21L1 20L3 20L3 21L2 21L2 24L3 24L3 25L2 25L2 26L1 26L1 27L2 27L2 29L3 29L3 30L4 30L4 29L3 29L3 28L4 28L4 27L3 27L3 26L6 26L6 27L5 27L5 28L6 28L6 29L5 29L5 30L6 30L6 31L4 31L4 32L3 32L3 31L2 31L2 30L1 30L1 29L0 29L0 33L1 33L1 32L3 32L3 33L2 33L2 34L3 34L3 33L5 33L5 34L4 34L4 35L1 35L1 36L0 36L0 37L1 37L1 36L3 36L3 37L5 37L5 34L6 34L6 35L8 35L8 39L12 39L12 40L13 40L13 41L12 41L12 42L11 42L11 40L9 40L9 41L8 41L8 43L9 43L9 41L10 41L10 42L11 42L11 43L10 43L10 44L9 44L9 45L14 45L14 44L15 44L15 43L16 43L16 45L19 45L19 44L21 44L21 43L22 43L22 45L23 45L23 44L24 44L24 45L25 45L25 44L26 44L26 45L27 45L27 43L28 43L28 44L29 44L29 45L30 45L30 43L28 43L28 42L30 42L30 41L32 41L32 42L31 42L31 45L32 45L32 43L33 43L33 44L34 44L34 43L36 43L36 44L37 44L37 45L40 45L40 41L41 41L41 43L43 43L43 42L42 42L42 41L44 41L44 42L45 42L45 41L44 41L44 40L43 40L43 38L42 38L42 34L43 34L43 35L44 35L44 36L43 36L43 37L45 37L45 33L43 33L43 32L45 32L45 31L43 31L43 29L44 29L44 30L45 30L45 29L44 29L44 27L42 27L42 28L39 28L39 27L38 27L38 26L37 26L37 25L41 25L41 24L42 24L42 23L44 23L44 24L43 24L43 25L45 25L45 19L44 19L44 18L45 18L45 16L44 16L44 14L43 14L43 13L44 13L44 12L43 12L43 13L42 13L42 12L41 12L41 14L39 14L39 13L38 13L38 15L37 15L37 16L35 16L35 17L34 17L34 16L33 16L33 14L34 14L34 11L35 11L35 10L34 10L34 11L33 11L33 10L32 10L32 7L33 7L33 9L34 9L34 8L36 8L36 10L38 10L38 9L39 9L39 8L36 8L36 7L37 7L37 6L36 6L36 7L35 7L35 6L34 6L34 7L33 7L33 5L37 5L37 3L36 3L36 1L37 1L37 0L36 0L36 1L35 1L35 4L31 4L31 5L30 5L30 3L31 3L31 1L32 1L32 3L33 3L33 1L32 1L32 0L29 0L29 2L28 2L28 1L27 1L27 0L26 0L26 2L25 2L25 1L23 1L23 0L20 0L20 1L21 1L21 2L22 2L22 1L23 1L23 2L25 2L25 3L24 3L24 4L21 4L21 3L19 3L19 2L18 2L18 3L17 3L17 1L16 1L16 0L15 0L15 1L14 1L14 0ZM27 2L27 3L25 3L25 5L26 5L26 6L25 6L25 7L26 7L26 10L25 10L25 9L22 9L22 10L20 10L20 11L18 11L18 10L17 10L17 11L16 11L16 9L18 9L18 8L19 8L19 7L20 7L20 6L19 6L19 5L20 5L20 4L19 4L19 3L18 3L18 4L17 4L17 3L15 3L15 4L14 4L14 5L13 5L13 3L11 3L11 5L10 5L10 6L9 6L9 7L10 7L10 6L11 6L11 8L9 8L9 9L8 9L8 10L7 10L7 9L6 9L6 10L4 10L4 9L3 9L3 11L2 11L2 13L3 13L3 14L2 14L2 15L3 15L3 16L4 16L4 15L6 15L6 16L7 16L7 15L6 15L6 14L7 14L7 13L8 13L8 15L11 15L11 16L10 16L10 19L9 19L9 16L8 16L8 17L6 17L6 18L7 18L7 19L4 19L4 20L7 20L7 19L9 19L9 21L10 21L10 22L11 22L11 23L9 23L9 25L8 25L8 26L9 26L9 25L10 25L10 26L11 26L11 27L10 27L10 28L9 28L9 29L8 29L8 30L7 30L7 29L6 29L6 30L7 30L7 31L6 31L6 32L7 32L7 33L6 33L6 34L7 34L7 33L9 33L9 34L11 34L11 35L10 35L10 37L12 37L12 39L13 39L13 37L14 37L14 38L15 38L15 37L16 37L16 35L15 35L15 37L14 37L14 36L11 36L11 35L13 35L13 34L15 34L15 33L14 33L14 32L16 32L16 33L19 33L19 31L20 31L20 32L21 32L21 34L20 34L20 35L19 35L19 34L17 34L17 36L18 36L18 35L19 35L19 37L18 37L18 38L17 38L17 39L16 39L16 40L18 40L18 42L19 42L19 43L21 43L21 42L19 42L19 40L20 40L20 39L18 39L18 38L20 38L20 36L21 36L21 35L22 35L22 36L25 36L25 33L26 33L26 34L27 34L27 35L26 35L26 38L25 38L25 41L26 41L26 40L27 40L27 41L28 41L28 39L26 39L26 38L28 38L28 36L29 36L29 37L30 37L30 38L29 38L29 40L32 40L32 39L34 39L34 40L33 40L33 41L34 41L34 40L35 40L35 39L36 39L36 36L37 36L37 35L36 35L36 36L34 36L34 35L33 35L33 36L32 36L32 34L30 34L30 32L32 32L32 33L33 33L33 34L35 34L35 33L37 33L37 32L38 32L38 34L40 34L40 35L41 35L41 33L42 33L42 32L43 32L43 31L41 31L41 30L42 30L42 29L41 29L41 30L40 30L40 32L39 32L39 29L38 29L38 28L37 28L37 26L36 26L36 25L35 25L35 24L36 24L36 23L35 23L35 24L34 24L34 25L33 25L33 24L32 24L32 22L31 22L31 21L33 21L33 23L34 23L34 22L35 22L35 21L36 21L36 20L37 20L37 19L36 19L36 20L35 20L35 21L33 21L33 19L34 19L34 17L33 17L33 18L31 18L31 16L32 16L32 14L31 14L31 11L30 11L30 9L31 9L31 7L32 7L32 6L31 6L31 7L30 7L30 5L29 5L29 3L28 3L28 2ZM27 3L27 4L28 4L28 3ZM15 4L15 5L14 5L14 7L15 7L15 8L14 8L14 10L13 10L13 9L9 9L9 10L8 10L8 13L9 13L9 10L10 10L10 11L11 11L11 12L10 12L10 14L11 14L11 13L12 13L12 12L14 12L14 14L12 14L12 15L14 15L14 16L11 16L11 20L10 20L10 21L11 21L11 20L12 20L12 22L13 22L13 20L14 20L14 23L13 23L13 27L17 27L17 28L18 28L18 29L19 29L19 28L21 28L21 27L23 27L23 26L24 26L24 25L25 25L25 30L24 30L24 28L23 28L23 30L21 30L21 32L22 32L22 31L23 31L23 32L24 32L24 33L25 33L25 32L27 32L27 26L28 26L28 29L29 29L29 30L28 30L28 31L31 31L31 28L32 28L32 30L33 30L33 33L35 33L35 32L34 32L34 31L35 31L35 29L36 29L36 32L37 32L37 31L38 31L38 30L37 30L37 28L36 28L36 26L35 26L35 27L34 27L34 26L33 26L33 27L32 27L32 26L31 26L31 24L30 24L30 25L27 25L27 26L26 26L26 24L27 24L27 23L28 23L28 24L29 24L29 23L30 23L30 21L31 21L31 18L30 18L30 21L29 21L29 17L30 17L30 16L31 16L31 14L30 14L30 11L29 11L29 12L24 12L24 11L23 11L23 14L22 14L22 18L21 18L21 17L20 17L20 15L21 15L21 13L22 13L22 11L21 11L21 12L20 12L20 14L18 14L18 13L17 13L17 12L15 12L15 8L17 8L17 6L18 6L18 7L19 7L19 6L18 6L18 5L19 5L19 4L18 4L18 5L17 5L17 6L16 6L16 7L15 7L15 5L16 5L16 4ZM11 5L11 6L12 6L12 7L13 7L13 6L12 6L12 5ZM21 5L21 8L24 8L24 5ZM28 5L28 7L27 7L27 6L26 6L26 7L27 7L27 11L28 11L28 10L29 10L29 8L28 8L28 7L29 7L29 5ZM22 6L22 7L23 7L23 6ZM40 8L40 10L41 10L41 11L43 11L43 10L44 10L44 11L45 11L45 9L42 9L42 10L41 10L41 8ZM6 10L6 11L7 11L7 10ZM11 10L11 11L13 11L13 10ZM3 11L3 13L7 13L7 12L4 12L4 11ZM37 11L37 12L38 12L38 11ZM32 12L32 13L33 13L33 12ZM15 13L15 14L17 14L17 13ZM3 14L3 15L4 15L4 14ZM24 14L24 15L23 15L23 17L25 17L25 18L22 18L22 20L23 20L23 19L24 19L24 20L25 20L25 18L26 18L26 19L28 19L28 16L29 16L29 15L30 15L30 14L28 14L28 15L27 15L27 18L26 18L26 16L25 16L25 15L26 15L26 14ZM35 14L35 15L36 15L36 14ZM41 14L41 15L43 15L43 14ZM15 15L15 16L16 16L16 17L15 17L15 18L17 18L17 17L19 17L19 16L17 16L17 15ZM39 15L39 16L38 16L38 17L36 17L36 18L39 18L39 17L40 17L40 19L39 19L39 20L40 20L40 19L41 19L41 20L44 20L44 19L43 19L43 18L42 18L42 19L41 19L41 17L42 17L42 16L40 16L40 15ZM43 16L43 17L44 17L44 16ZM4 17L4 18L5 18L5 17ZM12 18L12 20L13 20L13 18ZM18 18L18 20L17 20L17 24L16 24L16 22L15 22L15 24L14 24L14 25L15 25L15 24L16 24L16 26L17 26L17 27L18 27L18 28L19 28L19 27L21 27L21 26L22 26L22 25L21 25L21 26L19 26L19 27L18 27L18 26L17 26L17 25L20 25L20 21L19 21L19 20L21 20L21 19L20 19L20 18ZM15 19L15 21L16 21L16 19ZM26 20L26 21L25 21L25 24L26 24L26 23L27 23L27 22L28 22L28 20ZM5 21L5 24L8 24L8 21ZM18 21L18 24L19 24L19 21ZM21 21L21 24L24 24L24 21ZM37 21L37 24L40 24L40 21ZM42 21L42 22L41 22L41 23L42 23L42 22L44 22L44 21ZM0 22L0 23L1 23L1 22ZM3 22L3 24L4 24L4 22ZM6 22L6 23L7 23L7 22ZM22 22L22 23L23 23L23 22ZM38 22L38 23L39 23L39 22ZM6 25L6 26L7 26L7 25ZM29 26L29 27L30 27L30 28L29 28L29 29L30 29L30 28L31 28L31 27L30 27L30 26ZM40 26L40 27L41 27L41 26ZM6 27L6 28L8 28L8 27ZM33 27L33 29L35 29L35 28L34 28L34 27ZM10 28L10 30L8 30L8 31L12 31L12 32L13 32L13 31L14 31L14 30L13 30L13 29L15 29L15 28L13 28L13 29L12 29L12 30L11 30L11 28ZM16 29L16 32L17 32L17 29ZM12 30L12 31L13 31L13 30ZM25 30L25 31L26 31L26 30ZM28 32L28 33L27 33L27 34L28 34L28 33L29 33L29 32ZM11 33L11 34L13 34L13 33ZM23 34L23 35L24 35L24 34ZM30 35L30 37L32 37L32 38L31 38L31 39L32 39L32 38L34 38L34 36L33 36L33 37L32 37L32 36L31 36L31 35ZM6 36L6 37L7 37L7 36ZM21 37L21 40L24 40L24 37ZM37 37L37 40L40 40L40 37ZM22 38L22 39L23 39L23 38ZM38 38L38 39L39 39L39 38ZM14 39L14 40L15 40L15 39ZM41 40L41 41L42 41L42 40ZM13 41L13 42L14 42L14 43L11 43L11 44L14 44L14 43L15 43L15 42L14 42L14 41ZM16 41L16 43L17 43L17 44L18 44L18 43L17 43L17 41ZM23 41L23 43L24 43L24 44L25 44L25 43L26 43L26 42L24 42L24 41ZM35 41L35 42L36 42L36 41ZM37 42L37 44L38 44L38 42ZM44 43L44 44L45 44L45 43ZM42 44L42 45L43 45L43 44ZM0 0L0 7L7 7L7 0ZM1 1L1 6L6 6L6 1ZM2 2L2 5L5 5L5 2ZM38 0L38 7L45 7L45 0ZM39 1L39 6L44 6L44 1ZM40 2L40 5L43 5L43 2ZM0 38L0 45L7 45L7 38ZM1 39L1 44L6 44L6 39ZM2 40L2 43L5 43L5 40Z" fill="#000000"/></g></g></svg>
